<svg version="1.1" viewBox="0.0 0.0 431.81364829396324 337.58792650918633" fill="none" stroke="none" stroke-linecap="square" stroke-miterlimit="10" xmlns:xlink="http://www.w3.org/1999/xlink" xmlns="http://www.w3.org/2000/svg"><clipPath id="p.0"><path d="m0 0l431.81366 0l0 337.58792l-431.81366 0l0 -337.58792z" clip-rule="nonzero"/></clipPath><g clip-path="url(#p.0)"><path fill="#000000" fill-opacity="0.0" d="m0 0l431.81366 0l0 337.58792l-431.81366 0z" fill-rule="evenodd"/><path fill="#000000" fill-opacity="0.0" d="m18.569553 19.251965l342.7759 0l50.13748 50.137486l0 250.68141l-392.9134 0z" fill-rule="evenodd"/><path stroke="#000000" stroke-width="12.0" stroke-linejoin="round" stroke-linecap="butt" d="m18.569553 19.251965l342.7759 0l50.13748 50.137486l0 250.68141l-392.9134 0z" fill-rule="evenodd"/><path fill="#000000" fill-opacity="0.0" d="m83.11321 180.68636l81.374626 0c4.662613 0 9.134262 1.8522186 12.431229 5.14917c3.2969513 3.2969666 5.14917 7.7686157 5.14917 12.431229l0 87.8999c0 5.493164E-4 -4.272461E-4 9.765625E-4 -9.613037E-4 9.765625E-4l-116.53447 -9.765625E-4l0 0c-5.340576E-4 0 -9.689331E-4 -4.272461E-4 -9.689331E-4 -9.460449E-4l9.689331E-4 -87.89896l0 0c0 -9.709381 7.8710175 -17.580399 17.580406 -17.580399z" fill-rule="evenodd"/><path stroke="#000000" stroke-width="12.0" stroke-linejoin="round" stroke-linecap="butt" d="m83.11321 180.68636l81.374626 0c4.662613 0 9.134262 1.8522186 12.431229 5.14917c3.2969513 3.2969666 5.14917 7.7686157 5.14917 12.431229l0 87.8999c0 5.493164E-4 -4.272461E-4 9.765625E-4 -9.613037E-4 9.765625E-4l-116.53447 -9.765625E-4l0 0c-5.340576E-4 0 -9.689331E-4 -4.272461E-4 -9.689331E-4 -9.460449E-4l9.689331E-4 -87.89896l0 0c0 -9.709381 7.8710175 -17.580399 17.580406 -17.580399z" fill-rule="evenodd"/><path fill="#000000" fill-opacity="0.0" d="m65.53281 121.75722l0 0c0 -32.180374 26.087349 -58.267715 58.267715 -58.267715l0 0c15.4535675 0 30.274185 6.1389008 41.201508 17.066216c10.927307 10.927322 17.066208 25.74794 17.066208 41.2015l0 0c0 32.180374 -26.087341 58.267715 -58.267715 58.267715l0 0c-32.180367 0 -58.267715 -26.087341 -58.267715 -58.267715z" fill-rule="evenodd"/><path stroke="#000000" stroke-width="12.0" stroke-linejoin="round" stroke-linecap="butt" d="m65.53281 121.75722l0 0c0 -32.180374 26.087349 -58.267715 58.267715 -58.267715l0 0c15.4535675 0 30.274185 6.1389008 41.201508 17.066216c10.927307 10.927322 17.066208 25.74794 17.066208 41.2015l0 0c0 32.180374 -26.087341 58.267715 -58.267715 58.267715l0 0c-32.180367 0 -58.267715 -26.087341 -58.267715 -58.267715z" fill-rule="evenodd"/><path fill="#000000" fill-opacity="0.0" d="m94.82415 43.296986l57.95275 0l0 105.480316l-57.95275 0z" fill-rule="evenodd"/><path fill="#000000" d="m139.09349 90.50323q0 3.203125 -0.921875 5.78125q-0.90625 2.578125 -2.578125 4.453125q-1.65625 1.875 -3.984375 3.015625q-2.3125 1.125 -5.125 1.4375l-0.3125 7.609375q-0.046875 0.703125 -1.125 1.0625q-1.0625 0.34375 -3.09375 0.34375q-1.296875 0 -2.171875 -0.046875q-0.875 -0.0625 -1.390625 -0.21875q-0.5 -0.15625 -0.734375 -0.421875q-0.234375 -0.28125 -0.28125 -0.71875l-0.34375 -9.21875q-0.046875 -1.25 0.109375 -2.03125q0.15625 -0.78125 0.5625 -1.25q0.421875 -0.46875 1.046875 -0.640625q0.625 -0.171875 1.484375 -0.171875l0.546875 0q2.0625 0 3.5625 -0.65625q1.515625 -0.671875 2.4843826 -1.765625q0.984375 -1.09375 1.4218674 -2.578125q0.453125 -1.484375 0.453125 -3.171875q0 -1.875 -0.53125 -3.4375q-0.5156174 -1.5625 -1.59375 -2.6875q-1.078125 -1.140625 -2.703125 -1.734375q-1.609375 -0.609375 -3.796875 -0.609375q-2.0 0 -3.53125 0.390625q-1.515625 0.390625 -2.609375 0.859375q-1.09375 0.46875 -1.8125 0.859375q-0.71875 0.390625 -1.109375 0.390625q-0.28125 0 -0.515625 -0.171875q-0.234375 -0.1875 -0.390625 -0.65625q-0.15625 -0.46875 -0.25 -1.328125q-0.09375 -0.859375 -0.09375 -2.1875q0 -1.359375 0.109375 -1.984375q0.125 -0.625 0.515625 -1.015625q0.390625 -0.390625 1.484375 -0.921875q1.09375 -0.53125 2.609375 -0.96875q1.53125 -0.453125 3.40625 -0.765625q1.875 -0.3125 3.90625 -0.3125q4.609375 0 7.890625 1.265625q3.28125 1.265625 5.359375 3.421875q2.09375 2.140625 3.0625 4.921875q0.984375 2.765625 0.984375 5.859375zm-11.562492 33.46875q0 1.609375 -0.25 2.703125q-0.25 1.09375 -0.9062576 1.7656326q-0.640625 0.65625 -1.71875 0.953125q-1.0625 0.296875 -2.625 0.296875q-1.640625 0 -2.703125 -0.296875q-1.046875 -0.296875 -1.703125 -0.953125q-0.640625 -0.6718826 -0.890625 -1.7656326q-0.25 -1.09375 -0.25 -2.703125q0 -1.640625 0.25 -2.75q0.25 -1.109375 0.890625 -1.796875q0.65625 -0.6875 1.703125 -0.96875q1.0625 -0.296875 2.703125 -0.296875q1.5625 0 2.625 0.296875q1.078125 0.28125 1.71875 0.96875q0.6562576 0.6875 0.9062576 1.796875q0.25 1.109375 0.25 2.75z" fill-rule="nonzero"/><path fill="#000000" fill-opacity="0.0" d="m226.0105 68.17191l117.763794 0" fill-rule="evenodd"/><path stroke="#000000" stroke-width="12.0" stroke-linejoin="round" stroke-linecap="butt" d="m226.0105 68.17191l117.763794 0" fill-rule="evenodd"/><path fill="#000000" fill-opacity="0.0" d="m226.0105 101.58399l72.37796 0" fill-rule="evenodd"/><path stroke="#000000" stroke-width="12.0" stroke-linejoin="round" stroke-linecap="butt" d="m226.0105 101.58399l72.37796 0" fill-rule="evenodd"/><path fill="#000000" fill-opacity="0.0" d="m226.0105 134.99606l142.29922 0" fill-rule="evenodd"/><path stroke="#000000" stroke-width="12.0" stroke-linejoin="round" stroke-linecap="butt" stroke-dasharray="48.0,36.0" d="m226.0105 134.99606l142.29922 0" fill-rule="evenodd"/><path fill="#000000" fill-opacity="0.0" d="m226.0105 168.40814l111.62204 0" fill-rule="evenodd"/><path stroke="#000000" stroke-width="12.0" stroke-linejoin="round" stroke-linecap="butt" d="m226.0105 168.40814l111.62204 0" fill-rule="evenodd"/><path fill="#000000" fill-opacity="0.0" d="m239.01837 162.65749l90.61417 0l0 105.4803l-90.61417 0z" fill-rule="evenodd"/><path fill="#000000" d="m269.01837 267.25623q0 -1.9375 -0.5 -3.4375q0 -6.46875 7.390625 -10.781235q4.640625 -2.3125 7.53125 -2.3125q4.171875 0.828125 5.6875 4.640625q3.0 6.9999847 3.96875 9.42186q-0.421875 1.46875 -0.421875 0.4375q0 0.78125 -0.265625 -0.234375q17.0625 -30.10936 30.71875 -46.812485q10.6875 -12.703125 13.421875 -14.890625q8.6875 -6.515625 22.78125 -7.15625l1.234375 6.125q-9.359375 9.34375 -30.21875 38.65625q-20.40625 29.35936 -29.28125 46.124985q-2.4375 5.5 -5.953125 6.671875q-1.953125 1.9375 -7.875 1.34375q-4.5 0.640625 -6.75 -1.609375q-1.875 -1.25 -3.734375 -4.953125q-5.078125 -12.21875 -7.734375 -21.234375z" fill-rule="nonzero"/></g></svg>